<svg xmlns="http://www.w3.org/2000/svg" xmlns:xlink="http://www.w3.org/1999/xlink" width="500" zoomAndPan="magnify" viewBox="0 0 375 374.999991" height="500" preserveAspectRatio="xMidYMid meet" version="1.0"><defs><g/><clipPath id="5f2da91c32"><path d="M 83 59.054688 L 288 59.054688 L 288 267 L 83 267 Z M 83 59.054688 " clip-rule="nonzero"/></clipPath><clipPath id="f7aea359e4"><path d="M 90 85 L 266 85 L 266 234 L 90 234 Z M 90 85 " clip-rule="nonzero"/></clipPath><clipPath id="63169bf364"><path d="M 88.359375 87.558594 L 262.328125 84.085938 L 265.230469 229.554688 L 91.265625 233.03125 Z M 88.359375 87.558594 " clip-rule="nonzero"/></clipPath><clipPath id="de76047eb1"><path d="M 88.359375 87.558594 L 330.5625 82.722656 L 335.292969 319.675781 L 93.09375 324.511719 Z M 88.359375 87.558594 " clip-rule="nonzero"/></clipPath></defs><path fill="#cf59e6" d="M 125.484375 99.402344 C 108.882812 107.234375 97.457031 115.289062 89.617188 124.890625 C 81.792969 134.476562 77.523438 145.640625 75.222656 159.703125 C 72.636719 175.519531 72.542969 194.980469 78.417969 213.800781 C 83.019531 228.53125 91.277344 242.867188 104.867188 254.75 C 120.851562 268.734375 144.21875 279.332031 168.703125 284.140625 C 191.671875 288.65625 215.605469 288.070312 235.328125 280.402344 C 254.558594 272.921875 269.808594 258.6875 280.78125 241.242188 C 293.035156 221.753906 299.953125 198.261719 301.121094 175.691406 C 302.261719 153.644531 297.917969 132.488281 288.496094 115.480469 C 279.660156 99.527344 266.347656 87.222656 248.898438 81.257812 C 232.933594 75.804688 213.480469 75.644531 193.867188 78.523438 C 169.078125 82.15625 144.058594 90.632812 125.484375 99.402344 Z M 88.546875 124.019531 C 96.523438 114.246094 108.101562 106.074219 124.894531 98.152344 C 143.574219 89.335938 168.738281 80.808594 193.667969 77.152344 C 213.476562 74.246094 233.148438 74.414062 249.34375 79.949219 C 267.136719 86.027344 280.707031 98.566406 289.707031 114.816406 C 299.253906 132.050781 303.65625 153.464844 302.5 175.761719 C 301.320312 198.554688 294.335938 222.285156 281.949219 241.980469 C 270.832031 259.660156 255.359375 274.09375 235.828125 281.6875 C 215.847656 289.460938 191.644531 290.058594 168.4375 285.5 C 143.726562 280.644531 120.125 269.933594 103.957031 255.792969 C 90.152344 243.71875 81.765625 229.164062 77.097656 214.210938 C 71.152344 195.164062 71.246094 175.476562 73.859375 159.484375 C 76.199219 145.179688 80.554688 133.8125 88.546875 124.019531 " fill-opacity="1" fill-rule="nonzero"/><g clip-path="url(#5f2da91c32)"><path fill="#cf59e6" d="M 99.746094 104.519531 C 93.105469 115.601562 88.085938 128.730469 85.878906 142.742188 C 83.898438 155.308594 84.179688 168.582031 87.574219 181.722656 C 91.167969 195.621094 98.242188 209.378906 107.65625 221.53125 C 117.085938 233.703125 128.851562 244.257812 141.796875 251.71875 C 154.597656 259.097656 168.558594 263.453125 182.339844 264.835938 C 196.394531 266.242188 210.261719 264.554688 222.527344 259.820312 C 234.257812 255.289062 244.535156 247.964844 253.179688 238.742188 C 262.441406 228.859375 269.832031 216.796875 275.140625 203.648438 C 280.160156 191.222656 283.320312 177.832031 284.746094 164.5625 C 286.246094 150.636719 285.835938 136.851562 283.660156 124.472656 C 281.542969 112.417969 277.753906 101.710938 271.566406 92.71875 C 265.386719 83.734375 256.796875 76.445312 245.074219 71.21875 C 233.554688 66.082031 219.003906 62.929688 203.9375 61.714844 C 188.207031 60.449219 171.9375 61.300781 157.984375 64.222656 C 144.351562 67.074219 132.933594 71.90625 123.355469 78.644531 C 113.78125 85.382812 106.035156 94.027344 99.746094 104.519531 Z M 84.511719 142.53125 C 86.75 128.332031 91.835938 115.03125 98.558594 103.8125 C 104.949219 93.152344 112.820312 84.363281 122.558594 77.511719 C 132.289062 70.667969 143.875 65.761719 157.703125 62.867188 C 171.785156 59.921875 188.195312 59.058594 204.042969 60.335938 C 219.253906 61.558594 233.964844 64.75 245.640625 69.957031 C 257.609375 75.296875 266.382812 82.746094 272.703125 91.933594 C 279.019531 101.105469 282.875 111.996094 285.027344 124.234375 C 287.222656 136.734375 287.636719 150.648438 286.125 164.707031 C 284.683594 178.097656 281.492188 191.617188 276.425781 204.164062 C 271.050781 217.46875 263.566406 229.679688 254.1875 239.6875 C 245.40625 249.058594 234.960938 256.5 223.027344 261.105469 C 210.554688 265.921875 196.46875 267.640625 182.207031 266.210938 C 168.234375 264.8125 154.085938 260.394531 141.109375 252.917969 C 128 245.363281 116.097656 234.6875 106.5625 222.378906 C 97.039062 210.082031 89.875 196.152344 86.238281 182.070312 C 82.789062 168.734375 82.503906 155.269531 84.511719 142.53125 " fill-opacity="1" fill-rule="nonzero"/></g><g fill="#8000ff" fill-opacity="1"><g transform="translate(139.678471, 241.017318)"><g><path d="M 46.832031 -66.117188 C 85.917969 -66.117188 47.175781 0 109.847656 0 L 109.847656 -1.378906 C 97.796875 -1.378906 91.769531 -14.464844 85.054688 -29.613281 C 77.136719 -47.691406 70.9375 -67.492188 46.832031 -67.492188 C 40.460938 -67.492188 35.8125 -64.566406 32.886719 -61.640625 C 41.152344 -77.136719 52.34375 -90.222656 65.773438 -105.542969 C 66.289062 -105.542969 79.71875 -119.148438 91.769531 -121.558594 L 63.1875 -121.558594 C 72.140625 -115.015625 54.40625 -94.699219 54.40625 -94.699219 C 36.15625 -73.003906 23.242188 -53.890625 19.113281 -22.039062 L 19.113281 -121.558594 L 6.027344 -121.558594 L 6.027344 0 L 19.113281 0 C 19.113281 -22.554688 22.898438 -39.257812 29.269531 -53.890625 C 30.820312 -57.335938 36.15625 -66.117188 46.832031 -66.117188 Z M 46.832031 -66.117188 "/></g></g></g><g clip-path="url(#f7aea359e4)"><g clip-path="url(#63169bf364)"><g clip-path="url(#de76047eb1)"><path fill="#6bc5f8" d="M 246.046875 155.191406 C 252.128906 155.070312 257.492188 158.347656 260.304688 163.28125 C 258.210938 142.832031 248.828125 124.609375 234.832031 111.175781 C 219.261719 96.230469 197.980469 87.222656 174.683594 87.6875 C 151.382812 88.152344 130.480469 98.003906 115.515625 113.558594 C 100.554688 129.109375 91.53125 150.367188 91.996094 173.632812 C 92.460938 196.902344 102.324219 217.777344 117.894531 232.71875 C 133.46875 247.664062 154.75 256.671875 178.046875 256.207031 C 179.84375 256.171875 181.601562 256.082031 183.324219 255.941406 C 185.0625 255.800781 186.804688 255.601562 188.550781 255.351562 L 188.605469 255.34375 C 202.976562 253.46875 216.867188 249.121094 230.910156 244.722656 C 248.492188 239.222656 266.316406 233.644531 285.707031 232.679688 L 285.730469 232.675781 C 286.300781 232.621094 286.90625 232.570312 287.550781 232.53125 C 288.203125 232.492188 288.8125 232.464844 289.375 232.453125 C 301.550781 232.210938 312.679688 236.921875 320.816406 244.734375 C 328.957031 252.542969 334.113281 263.457031 334.359375 275.625 C 334.601562 287.785156 329.882812 298.898438 322.0625 307.027344 C 314.242188 315.160156 303.3125 320.308594 291.132812 320.550781 C 290.621094 320.5625 290.195312 320.15625 290.1875 319.644531 C 290.175781 319.132812 290.582031 318.707031 291.097656 318.699219 C 302.761719 318.464844 313.230469 313.53125 320.726562 305.742188 C 328.21875 297.953125 332.738281 287.308594 332.503906 275.65625 C 332.269531 264.003906 327.332031 253.550781 319.535156 246.066406 C 311.734375 238.585938 301.078125 234.070312 289.410156 234.304688 C 288.773438 234.316406 288.191406 234.339844 287.660156 234.371094 C 287.109375 234.40625 286.527344 234.453125 285.914062 234.515625 C 285.875 234.519531 285.839844 234.519531 285.804688 234.519531 C 266.648438 235.472656 248.933594 241.015625 231.460938 246.484375 C 217.332031 250.90625 203.359375 255.277344 188.847656 257.175781 L 188.8125 257.179688 C 187.066406 257.433594 185.285156 257.632812 183.46875 257.78125 C 181.667969 257.929688 179.871094 258.023438 178.085938 258.058594 C 154.273438 258.535156 132.527344 249.324219 116.609375 234.054688 C 100.695312 218.78125 90.613281 197.445312 90.136719 173.667969 C 89.664062 149.886719 98.886719 128.164062 114.179688 112.269531 C 129.46875 96.375 150.835938 86.304688 174.644531 85.828125 C 198.457031 85.355469 220.203125 94.5625 236.121094 109.832031 C 252.03125 125.105469 262.117188 146.441406 262.589844 170.222656 C 262.59375 170.441406 262.523438 170.644531 262.398438 170.804688 L 262.402344 170.878906 C 262.578125 179.722656 255.542969 187.035156 246.6875 187.210938 C 237.832031 187.390625 230.511719 180.363281 230.335938 171.519531 C 230.160156 162.675781 237.195312 155.363281 246.050781 155.1875 Z M 246.046875 155.191406 " fill-opacity="1" fill-rule="evenodd"/></g></g></g></svg>